<svg width="35" height="27" viewBox="0 0 35 27" fill="none" xmlns="http://www.w3.org/2000/svg">
<path d="M17.497 0C12.5877 0 8.65658 2.21786 5.79485 4.85759C2.95135 7.47321 1.04961 10.6071 0.150378 12.7587C-0.0501259 13.2348 -0.0501259 13.7652 0.150378 14.2413C1.04961 16.3929 2.95135 19.5268 5.79485 22.1424C8.65658 24.7821 12.5877 27 17.497 27C22.4063 27 26.3373 24.7821 29.1991 22.1424C32.0426 19.5208 33.9443 16.3929 34.8496 14.2413C35.0501 13.7652 35.0501 13.2348 34.8496 12.7587C33.9443 10.6071 32.0426 7.47321 29.1991 4.85759C26.3373 2.21786 22.4063 0 17.497 0ZM8.74772 13.5C8.74772 11.1983 9.66951 8.99087 11.3103 7.36332C12.9511 5.73578 15.1765 4.82143 17.497 4.82143C19.8174 4.82143 22.0428 5.73578 23.6836 7.36332C25.3244 8.99087 26.2462 11.1983 26.2462 13.5C26.2462 15.8017 25.3244 18.0091 23.6836 19.6367C22.0428 21.2642 19.8174 22.1786 17.497 22.1786C15.1765 22.1786 12.9511 21.2642 11.3103 19.6367C9.66951 18.0091 8.74772 15.8017 8.74772 13.5ZM17.497 9.64286C17.497 11.7703 15.7532 13.5 13.6084 13.5C13.177 13.5 12.7639 13.4277 12.375 13.3011C12.0408 13.1926 11.652 13.3975 11.6641 13.7471C11.6824 14.1629 11.7431 14.5788 11.8586 14.9946C12.691 18.0804 15.8929 19.9125 19.0038 19.0868C22.1146 18.2612 23.9617 15.085 23.1293 11.9993C22.4549 9.49821 20.225 7.81674 17.7461 7.71429C17.3937 7.70223 17.1871 8.08192 17.2965 8.41942C17.4241 8.80513 17.497 9.21496 17.497 9.64286Z" fill="#F5F5F5"/>
</svg>
