<svg width="21" height="16" viewBox="0 0 21 16" fill="none" xmlns="http://www.w3.org/2000/svg">
<path d="M19.5275 8.39804C21.4908 6.4759 21.4908 3.36306 19.5275 1.44093C17.7901 -0.260078 15.052 -0.481208 13.054 0.917017L12.9984 0.95444C12.498 1.30485 12.3833 1.98525 12.7413 2.47174C13.0992 2.95822 13.7941 3.07389 14.291 2.72348L14.3466 2.68606C15.462 1.907 16.9875 2.02947 17.9535 2.97863C19.048 4.05027 19.048 5.78529 17.9535 6.85693L14.0547 10.6808C12.9602 11.7524 11.188 11.7524 10.0934 10.6808C9.12398 9.73162 8.99888 8.23814 9.79461 7.1495L9.83284 7.09507C10.1907 6.60518 10.0726 5.92477 9.5757 5.57777C9.0788 5.23076 8.38037 5.34303 8.02594 5.82952L7.98771 5.88395C6.55609 7.8367 6.78196 10.5175 8.51936 12.2185C10.4826 14.1406 13.6621 14.1406 15.6253 12.2185L19.5275 8.39804ZM1.47245 7.60197C-0.490817 9.5241 -0.490817 12.6369 1.47245 14.5591C3.20985 16.2601 5.948 16.4812 7.94602 15.083L8.00161 15.0456C8.50199 14.6952 8.61665 14.0148 8.25875 13.5283C7.90084 13.0418 7.20588 12.9261 6.70898 13.2765L6.65339 13.3139C5.53798 14.093 4.01253 13.9705 3.04654 13.0214C1.95197 11.9463 1.95197 10.2113 3.04654 9.13967L6.94527 5.31922C8.03984 4.24758 9.81199 4.24758 10.9066 5.31922C11.876 6.26838 12.0011 7.76186 11.2054 8.8539L11.1672 8.90834C10.8093 9.39823 10.9274 10.0786 11.4243 10.4256C11.9212 10.7726 12.6196 10.6604 12.9741 10.1739L13.0123 10.1195C14.4439 8.1633 14.218 5.48251 12.4806 3.78151C10.5174 1.85937 7.33793 1.85937 5.37466 3.78151L1.47245 7.60197Z" fill="#F5F5F5"/>
</svg>
