<svg width="315" height="315" viewBox="0 0 315 315" fill="none" xmlns="http://www.w3.org/2000/svg">
<rect width="315" height="315" fill="#FFB900"/>
<path d="M39.5781 169L47.1781 139.8H52.0181L59.5781 169H55.9381L54.0181 161.24H45.1781L43.2581 169H39.5781ZM45.8981 158.2H53.2581L51.0181 149.2C50.5915 147.493 50.2581 146.067 50.0181 144.92C49.7781 143.773 49.6315 143.027 49.5781 142.68C49.5248 143.027 49.3781 143.773 49.1381 144.92C48.8981 146.067 48.5648 147.48 48.1381 149.16L45.8981 158.2ZM95.1069 169L87.7469 147H91.4269L96.3069 161.8C96.6002 162.68 96.8669 163.533 97.1069 164.36C97.3469 165.16 97.5202 165.787 97.6269 166.24C97.7602 165.787 97.9469 165.16 98.1869 164.36C98.4269 163.533 98.6802 162.68 98.9469 161.8L103.707 147H107.347L99.9869 169H95.1069ZM121.531 169.4C119.798 169.4 118.278 169.053 116.971 168.36C115.691 167.667 114.691 166.693 113.971 165.44C113.278 164.16 112.931 162.68 112.931 161V155C112.931 153.293 113.278 151.813 113.971 150.56C114.691 149.307 115.691 148.333 116.971 147.64C118.278 146.947 119.798 146.6 121.531 146.6C123.265 146.6 124.771 146.947 126.051 147.64C127.358 148.333 128.358 149.307 129.051 150.56C129.771 151.813 130.131 153.293 130.131 155V158.88H116.451V161C116.451 162.733 116.891 164.067 117.771 165C118.651 165.907 119.905 166.36 121.531 166.36C122.918 166.36 124.038 166.12 124.891 165.64C125.745 165.133 126.265 164.387 126.451 163.4H130.051C129.811 165.24 128.905 166.707 127.331 167.8C125.785 168.867 123.851 169.4 121.531 169.4ZM126.611 156.48V155C126.611 153.267 126.171 151.933 125.291 151C124.438 150.067 123.185 149.6 121.531 149.6C119.905 149.6 118.651 150.067 117.771 151C116.891 151.933 116.451 153.267 116.451 155V156.16H126.891L126.611 156.48ZM137.196 169V147H140.796V151.2H141.556L140.796 152.04C140.796 150.307 141.316 148.973 142.356 148.04C143.396 147.08 144.836 146.6 146.676 146.6C148.889 146.6 150.649 147.28 151.956 148.64C153.262 150 153.916 151.853 153.916 154.2V169H150.316V154.6C150.316 153.027 149.889 151.827 149.036 151C148.209 150.147 147.076 149.72 145.636 149.72C144.142 149.72 142.956 150.173 142.076 151.08C141.222 151.987 140.796 153.293 140.796 155V169H137.196ZM160.9 169V165.72H168.7V150.28H161.9V147H172.3V165.72H179.7V169H160.9ZM170.1 143.04C169.22 143.04 168.527 142.813 168.02 142.36C167.513 141.907 167.26 141.293 167.26 140.52C167.26 139.72 167.513 139.093 168.02 138.64C168.527 138.16 169.22 137.92 170.1 137.92C170.98 137.92 171.673 138.16 172.18 138.64C172.687 139.093 172.94 139.72 172.94 140.52C172.94 141.293 172.687 141.907 172.18 142.36C171.673 142.813 170.98 143.04 170.1 143.04ZM185.924 169V147H189.444V151.2H190.284L189.124 153.8C189.124 151.427 189.631 149.64 190.644 148.44C191.684 147.213 193.218 146.6 195.244 146.6C197.564 146.6 199.404 147.333 200.764 148.8C202.151 150.24 202.844 152.2 202.844 154.68V156H199.244V155C199.244 153.267 198.818 151.947 197.964 151.04C197.138 150.107 195.951 149.64 194.404 149.64C192.884 149.64 191.684 150.107 190.804 151.04C189.951 151.973 189.524 153.293 189.524 155V169H185.924ZM221.517 169.4C220.504 169.4 219.704 169.107 219.117 168.52C218.504 167.933 218.197 167.147 218.197 166.16C218.197 165.12 218.504 164.293 219.117 163.68C219.704 163.067 220.504 162.76 221.517 162.76C222.531 162.76 223.344 163.067 223.957 163.68C224.544 164.293 224.837 165.12 224.837 166.16C224.837 167.147 224.544 167.933 223.957 168.52C223.344 169.107 222.531 169.4 221.517 169.4ZM241.477 169.4C240.464 169.4 239.664 169.107 239.077 168.52C238.464 167.933 238.157 167.147 238.157 166.16C238.157 165.12 238.464 164.293 239.077 163.68C239.664 163.067 240.464 162.76 241.477 162.76C242.491 162.76 243.304 163.067 243.917 163.68C244.504 164.293 244.797 165.12 244.797 166.16C244.797 167.147 244.504 167.933 243.917 168.52C243.304 169.107 242.491 169.4 241.477 169.4ZM261.438 169.4C260.424 169.4 259.611 169.107 258.998 168.52C258.411 167.933 258.118 167.147 258.118 166.16C258.118 165.12 258.411 164.293 258.998 163.68C259.611 163.067 260.424 162.76 261.438 162.76C262.451 162.76 263.251 163.067 263.838 163.68C264.451 164.293 264.758 165.12 264.758 166.16C264.758 167.147 264.451 167.933 263.838 168.52C263.251 169.107 262.451 169.4 261.438 169.4Z" fill="#121212"/>
</svg>
