<svg width="351" height="351" viewBox="0 0 351 351" fill="none" xmlns="http://www.w3.org/2000/svg">
<rect x="0.421265" y="0.421143" width="350" height="350" fill="#FFB900"/>
<path d="M90.8086 160V123.5H95.3086V155.9H111.809V160H90.8086ZM130.039 160.4C127.839 160.4 125.939 159.983 124.339 159.15C122.739 158.317 121.489 157.117 120.589 155.55C119.722 153.95 119.289 152.067 119.289 149.9V142.6C119.289 140.4 119.722 138.517 120.589 136.95C121.489 135.383 122.739 134.183 124.339 133.35C125.939 132.517 127.839 132.1 130.039 132.1C132.239 132.1 134.139 132.517 135.739 133.35C137.339 134.183 138.572 135.383 139.439 136.95C140.339 138.517 140.789 140.383 140.789 142.55V149.9C140.789 152.067 140.339 153.95 139.439 155.55C138.572 157.117 137.339 158.317 135.739 159.15C134.139 159.983 132.239 160.4 130.039 160.4ZM130.039 156.4C132.006 156.4 133.539 155.85 134.639 154.75C135.739 153.65 136.289 152.033 136.289 149.9V142.6C136.289 140.467 135.739 138.85 134.639 137.75C133.539 136.65 132.006 136.1 130.039 136.1C128.106 136.1 126.572 136.65 125.439 137.75C124.339 138.85 123.789 140.467 123.789 142.6V149.9C123.789 152.033 124.339 153.65 125.439 154.75C126.572 155.85 128.106 156.4 130.039 156.4ZM153.07 169V164.9H161.82C163.22 164.9 164.236 164.583 164.87 163.95C165.536 163.317 165.87 162.333 165.87 161V157.5L165.97 152.5H165.07L165.92 151.75C165.92 153.75 165.253 155.333 163.92 156.5C162.586 157.667 160.803 158.25 158.57 158.25C155.736 158.25 153.503 157.333 151.87 155.5C150.236 153.633 149.42 151.133 149.42 148V142.2C149.42 139.067 150.236 136.583 151.87 134.75C153.503 132.917 155.736 132 158.57 132C160.803 132 162.586 132.583 163.92 133.75C165.253 134.917 165.92 136.5 165.92 138.5L165.07 137.75H165.92V132.5H170.37V161C170.37 163.467 169.603 165.417 168.07 166.85C166.57 168.283 164.47 169 161.77 169H153.07ZM159.92 154.35C161.786 154.35 163.253 153.767 164.32 152.6C165.386 151.433 165.92 149.817 165.92 147.75V142.5C165.92 140.433 165.386 138.817 164.32 137.65C163.253 136.483 161.786 135.9 159.92 135.9C158.02 135.9 156.536 136.467 155.47 137.6C154.436 138.733 153.92 140.367 153.92 142.5V147.75C153.92 149.883 154.436 151.517 155.47 152.65C156.536 153.783 158.02 154.35 159.92 154.35ZM190 160.4C187.8 160.4 185.9 159.983 184.3 159.15C182.7 158.317 181.45 157.117 180.55 155.55C179.683 153.95 179.25 152.067 179.25 149.9V142.6C179.25 140.4 179.683 138.517 180.55 136.95C181.45 135.383 182.7 134.183 184.3 133.35C185.9 132.517 187.8 132.1 190 132.1C192.2 132.1 194.1 132.517 195.7 133.35C197.3 134.183 198.533 135.383 199.4 136.95C200.3 138.517 200.75 140.383 200.75 142.55V149.9C200.75 152.067 200.3 153.95 199.4 155.55C198.533 157.117 197.3 158.317 195.7 159.15C194.1 159.983 192.2 160.4 190 160.4ZM190 156.4C191.967 156.4 193.5 155.85 194.6 154.75C195.7 153.65 196.25 152.033 196.25 149.9V142.6C196.25 140.467 195.7 138.85 194.6 137.75C193.5 136.65 191.967 136.1 190 136.1C188.067 136.1 186.533 136.65 185.4 137.75C184.3 138.85 183.75 140.467 183.75 142.6V149.9C183.75 152.033 184.3 153.65 185.4 154.75C186.533 155.85 188.067 156.4 190 156.4ZM247.561 160.5C244.661 160.5 242.378 159.767 240.711 158.3C239.044 156.8 238.211 154.783 238.211 152.25C238.211 149.683 239.044 147.667 240.711 146.2C242.378 144.733 244.628 144 247.461 144H255.961V141.25C255.961 139.55 255.444 138.25 254.411 137.35C253.411 136.417 251.978 135.95 250.111 135.95C248.478 135.95 247.111 136.3 246.011 137C244.911 137.667 244.278 138.583 244.111 139.75H239.611C239.911 137.383 241.028 135.5 242.961 134.1C244.894 132.7 247.311 132 250.211 132C253.378 132 255.878 132.817 257.711 134.45C259.544 136.083 260.461 138.3 260.461 141.1V160H256.061V154.75H255.311L256.061 154C256.061 156 255.278 157.583 253.711 158.75C252.178 159.917 250.128 160.5 247.561 160.5ZM248.661 156.95C250.794 156.95 252.544 156.417 253.911 155.35C255.278 154.283 255.961 152.917 255.961 151.25V147.35H247.561C246.061 147.35 244.878 147.767 244.011 148.6C243.144 149.433 242.711 150.567 242.711 152C242.711 153.533 243.228 154.75 244.261 155.65C245.328 156.517 246.794 156.95 248.661 156.95ZM67.0281 226L57.8281 198.5H62.4281L68.5281 217C68.8948 218.1 69.2281 219.167 69.5281 220.2C69.8281 221.2 70.0448 221.983 70.1781 222.55C70.3448 221.983 70.5781 221.2 70.8781 220.2C71.1781 219.167 71.4948 218.1 71.8281 217L77.7781 198.5H82.3281L73.1281 226H67.0281ZM100.059 226.5C97.8919 226.5 95.9919 226.067 94.3586 225.2C92.7586 224.333 91.5086 223.117 90.6086 221.55C89.7419 219.95 89.3086 218.1 89.3086 216V208.5C89.3086 206.367 89.7419 204.517 90.6086 202.95C91.5086 201.383 92.7586 200.167 94.3586 199.3C95.9919 198.433 97.8919 198 100.059 198C102.225 198 104.109 198.433 105.709 199.3C107.342 200.167 108.592 201.383 109.459 202.95C110.359 204.517 110.809 206.367 110.809 208.5V213.35H93.7086V216C93.7086 218.167 94.2586 219.833 95.3586 221C96.4586 222.133 98.0253 222.7 100.059 222.7C101.792 222.7 103.192 222.4 104.259 221.8C105.325 221.167 105.975 220.233 106.209 219H110.709C110.409 221.3 109.275 223.133 107.309 224.5C105.375 225.833 102.959 226.5 100.059 226.5ZM106.409 210.35V208.5C106.409 206.333 105.859 204.667 104.759 203.5C103.692 202.333 102.125 201.75 100.059 201.75C98.0253 201.75 96.4586 202.333 95.3586 203.5C94.2586 204.667 93.7086 206.333 93.7086 208.5V209.95H106.759L106.409 210.35ZM119.639 226V198.5H124.139V203.75H125.089L124.139 204.8C124.139 202.633 124.789 200.967 126.089 199.8C127.389 198.6 129.189 198 131.489 198C134.256 198 136.456 198.85 138.089 200.55C139.722 202.25 140.539 204.567 140.539 207.5V226H136.039V208C136.039 206.033 135.506 204.533 134.439 203.5C133.406 202.433 131.989 201.9 130.189 201.9C128.322 201.9 126.839 202.467 125.739 203.6C124.672 204.733 124.139 206.367 124.139 208.5V226H119.639ZM149.27 226V221.9H159.02V202.6H150.52V198.5H163.52V221.9H172.77V226H149.27ZM160.77 193.55C159.67 193.55 158.803 193.267 158.17 192.7C157.536 192.133 157.22 191.367 157.22 190.4C157.22 189.4 157.536 188.617 158.17 188.05C158.803 187.45 159.67 187.15 160.77 187.15C161.87 187.15 162.736 187.45 163.37 188.05C164.003 188.617 164.32 189.4 164.32 190.4C164.32 191.367 164.003 192.133 163.37 192.7C162.736 193.267 161.87 193.55 160.77 193.55ZM180.55 226V198.5H184.95V203.75H186L184.55 207C184.55 204.033 185.183 201.8 186.45 200.3C187.75 198.767 189.667 198 192.2 198C195.1 198 197.4 198.917 199.1 200.75C200.833 202.55 201.7 205 201.7 208.1V209.75H197.2V208.5C197.2 206.333 196.667 204.683 195.6 203.55C194.567 202.383 193.083 201.8 191.15 201.8C189.25 201.8 187.75 202.383 186.65 203.55C185.583 204.717 185.05 206.367 185.05 208.5V226H180.55ZM225.041 226.5C223.775 226.5 222.775 226.133 222.041 225.4C221.275 224.667 220.891 223.683 220.891 222.45C220.891 221.15 221.275 220.117 222.041 219.35C222.775 218.583 223.775 218.2 225.041 218.2C226.308 218.2 227.325 218.583 228.091 219.35C228.825 220.117 229.191 221.15 229.191 222.45C229.191 223.683 228.825 224.667 228.091 225.4C227.325 226.133 226.308 226.5 225.041 226.5ZM249.991 226.5C248.725 226.5 247.725 226.133 246.991 225.4C246.225 224.667 245.841 223.683 245.841 222.45C245.841 221.15 246.225 220.117 246.991 219.35C247.725 218.583 248.725 218.2 249.991 218.2C251.258 218.2 252.275 218.583 253.041 219.35C253.775 220.117 254.141 221.15 254.141 222.45C254.141 223.683 253.775 224.667 253.041 225.4C252.275 226.133 251.258 226.5 249.991 226.5ZM274.941 226.5C273.675 226.5 272.658 226.133 271.891 225.4C271.158 224.667 270.791 223.683 270.791 222.45C270.791 221.15 271.158 220.117 271.891 219.35C272.658 218.583 273.675 218.2 274.941 218.2C276.208 218.2 277.208 218.583 277.941 219.35C278.708 220.117 279.091 221.15 279.091 222.45C279.091 223.683 278.708 224.667 277.941 225.4C277.208 226.133 276.208 226.5 274.941 226.5Z" fill="#121212"/>
</svg>
