<svg width="45" height="53" viewBox="0 0 45 53" fill="none" xmlns="http://www.w3.org/2000/svg">
<path d="M20.8929 0.645508H33.3583C34.6339 0.645508 35.8594 1.1632 36.7634 2.07678L43.5837 8.96919C44.4877 9.88277 45 11.1212 45 12.4103V34.7523C45 37.4423 42.8404 39.6247 40.1786 39.6247H20.8929C18.231 39.6247 16.0714 37.4423 16.0714 34.7523V5.51791C16.0714 2.82794 18.231 0.645508 20.8929 0.645508ZM4.82143 13.6386H12.8571V20.1351H6.42857V46.1213H25.7143V42.873H32.1429V47.7454C32.1429 50.4354 29.9833 52.6178 27.3214 52.6178H4.82143C2.1596 52.6178 0 50.4354 0 47.7454V18.511C0 15.821 2.1596 13.6386 4.82143 13.6386Z" fill="#F5F5F5"/>
</svg>
