<svg width="1440" height="748" viewBox="0 0 1440 748" fill="none" xmlns="http://www.w3.org/2000/svg">
<g filter="url(#filter0_f_47_77)">
<path d="M331.184 707.094C514.092 707.094 662.369 613.691 662.369 498.472C662.369 383.253 514.092 289.85 331.184 289.85C148.276 289.85 0 383.253 0 498.472C0 613.691 148.276 707.094 331.184 707.094Z" fill="#4B0082"/>
<path d="M490.747 748C673.655 748 821.931 654.597 821.931 539.378C821.931 424.159 673.655 330.756 490.747 330.756C307.839 330.756 159.562 424.159 159.562 539.378C159.562 654.597 307.839 748 490.747 748Z" fill="#121212"/>
<path d="M415.604 563.922C598.512 563.922 746.788 470.519 746.788 355.3C746.788 240.081 598.512 146.678 415.604 146.678C232.696 146.678 84.4196 240.081 84.4196 355.3C84.4196 470.519 232.696 563.922 415.604 563.922Z" fill="#4B0082"/>
<path d="M706.898 417.244C889.806 417.244 1038.08 323.841 1038.08 208.622C1038.08 93.4032 889.806 0 706.898 0C523.99 0 375.713 93.4032 375.713 208.622C375.713 323.841 523.99 417.244 706.898 417.244Z" fill="#4B0082"/>
<path d="M1104.88 434.775C1287.78 434.775 1436.06 341.372 1436.06 226.153C1436.06 110.934 1287.78 17.5313 1104.88 17.5313C921.968 17.5313 773.691 110.934 773.691 226.153C773.691 341.372 921.968 434.775 1104.88 434.775Z" fill="#121212"/>
<path d="M545.48 469.837C728.388 469.837 876.665 376.434 876.665 261.216C876.665 145.997 728.388 52.5938 545.48 52.5938C362.572 52.5938 214.296 145.997 214.296 261.216C214.296 376.434 362.572 469.837 545.48 469.837Z" fill="#4B0082"/>
</g>
<defs>
<filter id="filter0_f_47_77" x="-322" y="-322" width="2080.06" height="1392" filterUnits="userSpaceOnUse" color-interpolation-filters="sRGB">
<feFlood flood-opacity="0" result="BackgroundImageFix"/>
<feBlend mode="normal" in="SourceGraphic" in2="BackgroundImageFix" result="shape"/>
<feGaussianBlur stdDeviation="161" result="effect1_foregroundBlur_47_77"/>
</filter>
</defs>
</svg>
